<mxfile host="app.diagrams.net" agent="Mozilla/5.0 (Macintosh; Intel Mac OS X 10_15_7) AppleWebKit/537.36 (KHTML, like Gecko) Chrome/127.0.0.0 Safari/537.36" version="24.7.17">
  <diagram name="Page-1" id="c4acf3e9-155e-7222-9cf6-157b1a14988f">
    <mxGraphModel dx="2537" dy="1107" grid="1" gridSize="10" guides="1" tooltips="1" connect="1" arrows="1" fold="1" page="1" pageScale="1" pageWidth="850" pageHeight="1100" background="none" math="0" shadow="0">
      <root>
        <mxCell id="0" />
        <mxCell id="1" parent="0" />
        <mxCell id="PkW1fspWSgTxLqBnO6iF-32" style="edgeStyle=orthogonalEdgeStyle;rounded=0;orthogonalLoop=1;jettySize=auto;html=1;strokeWidth=4;" edge="1" parent="1" target="PkW1fspWSgTxLqBnO6iF-30">
          <mxGeometry relative="1" as="geometry">
            <mxPoint x="19.99999999999997" y="645" as="sourcePoint" />
            <mxPoint x="19.99999999999997" y="545" as="targetPoint" />
          </mxGeometry>
        </mxCell>
        <mxCell id="PkW1fspWSgTxLqBnO6iF-26" value="&lt;font style=&quot;font-size: 16px;&quot;&gt;Cron Job Scheduler&lt;/font&gt;" style="shape=process;whiteSpace=wrap;html=1;backgroundOutline=1;rotation=-90;container=0;" vertex="1" parent="1">
          <mxGeometry x="-40.00000000000003" y="675" width="120" height="60" as="geometry" />
        </mxCell>
        <mxCell id="PkW1fspWSgTxLqBnO6iF-30" value="" style="ellipse;html=1;shape=startState;fillColor=#000000;strokeColor=#ff0000;rotation=-90;container=0;" vertex="1" parent="1">
          <mxGeometry x="-5.000000000000028" y="490" width="50" height="60" as="geometry" />
        </mxCell>
        <mxCell id="PkW1fspWSgTxLqBnO6iF-31" value="" style="edgeStyle=orthogonalEdgeStyle;html=1;verticalAlign=bottom;endArrow=open;endSize=8;strokeColor=#ff0000;rounded=0;strokeWidth=5;" edge="1" parent="1">
          <mxGeometry relative="1" as="geometry">
            <mxPoint x="144.99999999999997" y="520" as="targetPoint" />
            <mxPoint x="44.99999999999997" y="520" as="sourcePoint" />
            <Array as="points">
              <mxPoint x="124.99999999999997" y="520" />
              <mxPoint x="124.99999999999997" y="520" />
            </Array>
          </mxGeometry>
        </mxCell>
        <mxCell id="PkW1fspWSgTxLqBnO6iF-74" value="&lt;font style=&quot;font-size: 22px;&quot;&gt;1&lt;/font&gt;" style="edgeLabel;html=1;align=center;verticalAlign=middle;resizable=0;points=[];container=0;" vertex="1" connectable="0" parent="PkW1fspWSgTxLqBnO6iF-31">
          <mxGeometry x="-0.3194" y="-1" relative="1" as="geometry">
            <mxPoint x="9" as="offset" />
          </mxGeometry>
        </mxCell>
        <mxCell id="PkW1fspWSgTxLqBnO6iF-50" style="edgeStyle=orthogonalEdgeStyle;rounded=0;orthogonalLoop=1;jettySize=auto;html=1;entryX=0;entryY=0.5;entryDx=0;entryDy=0;exitX=1;exitY=0.5;exitDx=0;exitDy=0;strokeWidth=2;" edge="1" parent="1" source="PkW1fspWSgTxLqBnO6iF-9" target="PkW1fspWSgTxLqBnO6iF-10">
          <mxGeometry relative="1" as="geometry" />
        </mxCell>
        <mxCell id="PkW1fspWSgTxLqBnO6iF-62" value="&lt;span style=&quot;font-size: 22px;&quot;&gt;3&lt;/span&gt;" style="edgeLabel;html=1;align=center;verticalAlign=middle;resizable=0;points=[];container=0;" vertex="1" connectable="0" parent="PkW1fspWSgTxLqBnO6iF-50">
          <mxGeometry x="-0.1079" relative="1" as="geometry">
            <mxPoint as="offset" />
          </mxGeometry>
        </mxCell>
        <mxCell id="PkW1fspWSgTxLqBnO6iF-94" style="edgeStyle=orthogonalEdgeStyle;rounded=0;orthogonalLoop=1;jettySize=auto;html=1;dashed=1;dashPattern=1 2;endArrow=none;endFill=0;" edge="1" parent="1" source="PkW1fspWSgTxLqBnO6iF-9">
          <mxGeometry relative="1" as="geometry">
            <mxPoint x="190" y="610" as="targetPoint" />
            <Array as="points">
              <mxPoint x="465" y="610" />
            </Array>
          </mxGeometry>
        </mxCell>
        <mxCell id="PkW1fspWSgTxLqBnO6iF-98" value="Logging information" style="edgeLabel;html=1;align=center;verticalAlign=middle;resizable=0;points=[];" vertex="1" connectable="0" parent="PkW1fspWSgTxLqBnO6iF-94">
          <mxGeometry x="-0.0259" relative="1" as="geometry">
            <mxPoint as="offset" />
          </mxGeometry>
        </mxCell>
        <mxCell id="PkW1fspWSgTxLqBnO6iF-9" value="&lt;span style=&quot;font-size: 16px;&quot;&gt;Extraction&lt;/span&gt;&lt;div style=&quot;font-size: 11px;&quot;&gt;&lt;font style=&quot;font-size: 11px;&quot;&gt;Async Fetching&lt;/font&gt;&lt;/div&gt;&lt;div style=&quot;font-size: 11px;&quot;&gt;&lt;font style=&quot;font-size: 11px;&quot;&gt;aiohttp&lt;/font&gt;&lt;/div&gt;" style="shape=process;whiteSpace=wrap;html=1;backgroundOutline=1;rotation=0;container=0;" vertex="1" parent="1">
          <mxGeometry x="390" y="475" width="150" height="90" as="geometry" />
        </mxCell>
        <mxCell id="PkW1fspWSgTxLqBnO6iF-71" style="edgeStyle=orthogonalEdgeStyle;rounded=0;orthogonalLoop=1;jettySize=auto;html=1;entryX=1;entryY=0.5;entryDx=0;entryDy=0;exitX=1;exitY=0.5;exitDx=0;exitDy=0;strokeWidth=2;" edge="1" parent="1" source="PkW1fspWSgTxLqBnO6iF-10" target="PkW1fspWSgTxLqBnO6iF-12">
          <mxGeometry relative="1" as="geometry" />
        </mxCell>
        <mxCell id="PkW1fspWSgTxLqBnO6iF-72" value="&lt;span style=&quot;font-size: 22px;&quot;&gt;4&lt;/span&gt;" style="edgeLabel;html=1;align=center;verticalAlign=middle;resizable=0;points=[];container=0;" vertex="1" connectable="0" parent="PkW1fspWSgTxLqBnO6iF-71">
          <mxGeometry x="0.0014" relative="1" as="geometry">
            <mxPoint as="offset" />
          </mxGeometry>
        </mxCell>
        <mxCell id="PkW1fspWSgTxLqBnO6iF-95" style="edgeStyle=orthogonalEdgeStyle;rounded=0;orthogonalLoop=1;jettySize=auto;html=1;endArrow=none;endFill=0;dashed=1;dashPattern=1 2;" edge="1" parent="1" source="PkW1fspWSgTxLqBnO6iF-10">
          <mxGeometry relative="1" as="geometry">
            <mxPoint x="460" y="610" as="targetPoint" />
            <Array as="points">
              <mxPoint x="705" y="610" />
            </Array>
          </mxGeometry>
        </mxCell>
        <mxCell id="PkW1fspWSgTxLqBnO6iF-99" value="Logging information" style="edgeLabel;html=1;align=center;verticalAlign=middle;resizable=0;points=[];" vertex="1" connectable="0" parent="PkW1fspWSgTxLqBnO6iF-95">
          <mxGeometry x="0.1063" relative="1" as="geometry">
            <mxPoint as="offset" />
          </mxGeometry>
        </mxCell>
        <mxCell id="PkW1fspWSgTxLqBnO6iF-10" value="&lt;span style=&quot;font-size: 16px;&quot;&gt;Transformation&lt;/span&gt;&lt;div style=&quot;&quot;&gt;&lt;i style=&quot;&quot;&gt;&lt;font style=&quot;font-size: 12px;&quot;&gt;pandas and json&lt;/font&gt;&lt;/i&gt;&lt;/div&gt;" style="shape=process;whiteSpace=wrap;html=1;backgroundOutline=1;rotation=0;container=0;" vertex="1" parent="1">
          <mxGeometry x="630" y="475" width="150" height="90" as="geometry" />
        </mxCell>
        <mxCell id="PkW1fspWSgTxLqBnO6iF-49" style="edgeStyle=orthogonalEdgeStyle;rounded=0;orthogonalLoop=1;jettySize=auto;html=1;exitX=1;exitY=0.5;exitDx=0;exitDy=0;strokeWidth=2;" edge="1" parent="1" source="PkW1fspWSgTxLqBnO6iF-11">
          <mxGeometry relative="1" as="geometry">
            <mxPoint x="390" y="520" as="targetPoint" />
            <Array as="points" />
          </mxGeometry>
        </mxCell>
        <mxCell id="PkW1fspWSgTxLqBnO6iF-61" value="&lt;span style=&quot;font-size: 22px;&quot;&gt;2&lt;/span&gt;" style="edgeLabel;html=1;align=center;verticalAlign=middle;resizable=0;points=[];container=0;" vertex="1" connectable="0" parent="PkW1fspWSgTxLqBnO6iF-49">
          <mxGeometry x="-0.0705" y="1" relative="1" as="geometry">
            <mxPoint as="offset" />
          </mxGeometry>
        </mxCell>
        <mxCell id="PkW1fspWSgTxLqBnO6iF-93" style="edgeStyle=orthogonalEdgeStyle;rounded=0;orthogonalLoop=1;jettySize=auto;html=1;entryX=0.5;entryY=0;entryDx=0;entryDy=0;dashed=1;dashPattern=1 2;" edge="1" parent="1" source="PkW1fspWSgTxLqBnO6iF-11" target="PkW1fspWSgTxLqBnO6iF-33">
          <mxGeometry relative="1" as="geometry">
            <Array as="points">
              <mxPoint x="190" y="590" />
              <mxPoint x="190" y="590" />
            </Array>
          </mxGeometry>
        </mxCell>
        <mxCell id="PkW1fspWSgTxLqBnO6iF-11" value="&lt;span style=&quot;font-size: 16px;&quot;&gt;Task Queue&lt;/span&gt;&lt;div style=&quot;&quot;&gt;&lt;i style=&quot;&quot;&gt;&lt;font style=&quot;font-size: 12px;&quot;&gt;Celery + RabbitMQ&lt;/font&gt;&lt;/i&gt;&lt;/div&gt;" style="shape=process;whiteSpace=wrap;html=1;backgroundOutline=1;rotation=0;container=0;" vertex="1" parent="1">
          <mxGeometry x="139.99999999999997" y="475" width="150" height="90" as="geometry" />
        </mxCell>
        <mxCell id="PkW1fspWSgTxLqBnO6iF-97" style="edgeStyle=orthogonalEdgeStyle;rounded=0;orthogonalLoop=1;jettySize=auto;html=1;endArrow=none;endFill=0;dashed=1;dashPattern=1 2;" edge="1" parent="1" source="PkW1fspWSgTxLqBnO6iF-12">
          <mxGeometry relative="1" as="geometry">
            <mxPoint x="705" y="610" as="targetPoint" />
          </mxGeometry>
        </mxCell>
        <mxCell id="PkW1fspWSgTxLqBnO6iF-12" value="&lt;span style=&quot;font-size: 16px;&quot;&gt;Loading&lt;/span&gt;&lt;br&gt;&lt;div style=&quot;font-size: 13px;&quot;&gt;&lt;i&gt;Postgres psycopg2&lt;/i&gt;&lt;/div&gt;" style="shape=process;whiteSpace=wrap;html=1;backgroundOutline=1;rotation=0;container=0;" vertex="1" parent="1">
          <mxGeometry x="630" y="645" width="150" height="90" as="geometry" />
        </mxCell>
        <mxCell id="PkW1fspWSgTxLqBnO6iF-13" value="&lt;font style=&quot;font-size: 16px;&quot;&gt;News Database&lt;/font&gt;" style="shape=cylinder3;whiteSpace=wrap;html=1;boundedLbl=1;backgroundOutline=1;size=15;rotation=0;container=0;" vertex="1" parent="1">
          <mxGeometry x="450" y="635" width="110" height="110" as="geometry" />
        </mxCell>
        <mxCell id="PkW1fspWSgTxLqBnO6iF-14" value="ETL Flow" style="shape=umlFrame;whiteSpace=wrap;html=1;pointerEvents=0;movable=1;resizable=1;rotatable=1;deletable=1;editable=1;locked=0;connectable=1;rotation=0;container=0;" vertex="1" parent="1">
          <mxGeometry x="59.99999999999997" y="285" width="790" height="490" as="geometry" />
        </mxCell>
        <mxCell id="PkW1fspWSgTxLqBnO6iF-17" style="edgeStyle=orthogonalEdgeStyle;rounded=0;orthogonalLoop=1;jettySize=auto;html=1;endArrow=none;endFill=0;" edge="1" parent="1" source="PkW1fspWSgTxLqBnO6iF-1">
          <mxGeometry relative="1" as="geometry">
            <mxPoint x="460" y="420" as="targetPoint" />
            <Array as="points">
              <mxPoint x="300" y="420" />
              <mxPoint x="460" y="420" />
            </Array>
          </mxGeometry>
        </mxCell>
        <mxCell id="PkW1fspWSgTxLqBnO6iF-19" style="edgeStyle=orthogonalEdgeStyle;rounded=0;orthogonalLoop=1;jettySize=auto;html=1;" edge="1" parent="1" source="PkW1fspWSgTxLqBnO6iF-2">
          <mxGeometry relative="1" as="geometry">
            <mxPoint x="460" y="475" as="targetPoint" />
            <Array as="points">
              <mxPoint x="460" y="475" />
            </Array>
          </mxGeometry>
        </mxCell>
        <mxCell id="PkW1fspWSgTxLqBnO6iF-105" value="Raw API Data" style="edgeLabel;html=1;align=center;verticalAlign=middle;resizable=0;points=[];" vertex="1" connectable="0" parent="PkW1fspWSgTxLqBnO6iF-19">
          <mxGeometry x="0.3147" relative="1" as="geometry">
            <mxPoint as="offset" />
          </mxGeometry>
        </mxCell>
        <mxCell id="PkW1fspWSgTxLqBnO6iF-25" style="edgeStyle=orthogonalEdgeStyle;rounded=0;orthogonalLoop=1;jettySize=auto;html=1;entryX=1;entryY=0.5;entryDx=0;entryDy=0;entryPerimeter=0;" edge="1" parent="1" source="PkW1fspWSgTxLqBnO6iF-12" target="PkW1fspWSgTxLqBnO6iF-13">
          <mxGeometry relative="1" as="geometry" />
        </mxCell>
        <mxCell id="PkW1fspWSgTxLqBnO6iF-43" style="edgeStyle=orthogonalEdgeStyle;rounded=0;orthogonalLoop=1;jettySize=auto;html=1;" edge="1" parent="1" source="PkW1fspWSgTxLqBnO6iF-33" target="PkW1fspWSgTxLqBnO6iF-42">
          <mxGeometry relative="1" as="geometry" />
        </mxCell>
        <mxCell id="PkW1fspWSgTxLqBnO6iF-33" value="&lt;font style=&quot;font-size: 16px;&quot;&gt;Logger&lt;/font&gt;&lt;div&gt;&lt;i style=&quot;&quot;&gt;&lt;font style=&quot;font-size: 12px;&quot;&gt;logging&lt;/font&gt;&lt;/i&gt;&lt;/div&gt;" style="shape=process;whiteSpace=wrap;html=1;backgroundOutline=1;rotation=0;align=center;container=0;" vertex="1" parent="1">
          <mxGeometry x="139.99999999999997" y="655" width="100" height="70" as="geometry" />
        </mxCell>
        <mxCell id="PkW1fspWSgTxLqBnO6iF-42" value="&lt;font style=&quot;font-size: 16px;&quot;&gt;Loggs&lt;/font&gt;" style="shape=cylinder3;whiteSpace=wrap;html=1;boundedLbl=1;backgroundOutline=1;size=15;rotation=0;container=0;" vertex="1" parent="1">
          <mxGeometry x="293" y="633" width="110" height="115" as="geometry" />
        </mxCell>
        <mxCell id="PkW1fspWSgTxLqBnO6iF-1" value="&lt;font style=&quot;font-size: 16px;&quot;&gt;BBC&lt;/font&gt;" style="rounded=0;whiteSpace=wrap;html=1;rotation=0;container=0;" vertex="1" parent="1">
          <mxGeometry x="239.99999999999997" y="325" width="120" height="60" as="geometry" />
        </mxCell>
        <mxCell id="PkW1fspWSgTxLqBnO6iF-2" value="&lt;font style=&quot;font-size: 16px;&quot;&gt;New York Times&lt;/font&gt;" style="rounded=0;whiteSpace=wrap;html=1;rotation=0;container=0;" vertex="1" parent="1">
          <mxGeometry x="400" y="325" width="120" height="60" as="geometry" />
        </mxCell>
        <mxCell id="PkW1fspWSgTxLqBnO6iF-102" style="edgeStyle=orthogonalEdgeStyle;rounded=0;orthogonalLoop=1;jettySize=auto;html=1;endArrow=none;endFill=0;" edge="1" parent="1" source="PkW1fspWSgTxLqBnO6iF-3">
          <mxGeometry relative="1" as="geometry">
            <mxPoint x="620" y="420" as="targetPoint" />
            <Array as="points">
              <mxPoint x="780" y="420" />
            </Array>
          </mxGeometry>
        </mxCell>
        <mxCell id="PkW1fspWSgTxLqBnO6iF-3" value="&lt;font style=&quot;font-size: 16px;&quot;&gt;Guardian&lt;/font&gt;" style="rounded=0;whiteSpace=wrap;html=1;rotation=0;container=0;" vertex="1" parent="1">
          <mxGeometry x="720" y="325" width="120" height="60" as="geometry" />
        </mxCell>
        <mxCell id="PkW1fspWSgTxLqBnO6iF-100" style="edgeStyle=orthogonalEdgeStyle;rounded=0;orthogonalLoop=1;jettySize=auto;html=1;endArrow=none;endFill=0;" edge="1" parent="1" source="PkW1fspWSgTxLqBnO6iF-4">
          <mxGeometry relative="1" as="geometry">
            <mxPoint x="300" y="420" as="targetPoint" />
            <Array as="points">
              <mxPoint x="140" y="420" />
            </Array>
          </mxGeometry>
        </mxCell>
        <mxCell id="PkW1fspWSgTxLqBnO6iF-4" value="&lt;font style=&quot;font-size: 16px;&quot;&gt;Bloomberg&lt;/font&gt;" style="rounded=0;whiteSpace=wrap;html=1;rotation=0;container=0;" vertex="1" parent="1">
          <mxGeometry x="79.99999999999997" y="325" width="120" height="60" as="geometry" />
        </mxCell>
        <mxCell id="PkW1fspWSgTxLqBnO6iF-101" style="edgeStyle=orthogonalEdgeStyle;rounded=0;orthogonalLoop=1;jettySize=auto;html=1;endArrow=none;endFill=0;" edge="1" parent="1" source="PkW1fspWSgTxLqBnO6iF-5">
          <mxGeometry relative="1" as="geometry">
            <mxPoint x="460" y="420" as="targetPoint" />
            <Array as="points">
              <mxPoint x="620" y="420" />
            </Array>
          </mxGeometry>
        </mxCell>
        <mxCell id="PkW1fspWSgTxLqBnO6iF-5" value="&lt;font style=&quot;font-size: 16px;&quot;&gt;Reuters&lt;/font&gt;" style="rounded=0;whiteSpace=wrap;html=1;rotation=0;container=0;" vertex="1" parent="1">
          <mxGeometry x="560" y="325" width="120" height="60" as="geometry" />
        </mxCell>
      </root>
    </mxGraphModel>
  </diagram>
</mxfile>
